<?xml version="1.0" encoding="utf-8"?>
<!-- Generator: Adobe Illustrator 20.0.0, SVG Export Plug-In . SVG Version: 6.00 Build 0)  -->
<svg version="1.1" id="Layer_1" xmlns="http://www.w3.org/2000/svg" xmlns:xlink="http://www.w3.org/1999/xlink" x="0px" y="0px"
	 viewBox="0 0 866 155.3" style="enable-background:new 0 0 866 155.3;" xml:space="preserve">
<style type="text/css">
	.st0{fill:#FFFFFF;}
</style>
<g>
	<path class="st0" d="M0,19.4V0h70.3v19.4H44.9v104.8H25.5V19.4H0z"/>
	<path class="st0" d="M134,155.3h-31.8v-19.4h28.7c5.2,0,7.8-3.9,7.8-11.6h-24.8c-7.6,0-13.5-2.6-17.7-7.7
		c-4.2-5.1-6.4-11.9-6.4-20.3V39.1h19.4v54c0,7.8,2.6,11.6,7.8,11.6h21.7V39.1h19.4v88.2c0,8.4-2.1,15.1-6.4,20.3
		C147.4,152.7,141.5,155.3,134,155.3z"/>
	<path class="st0" d="M179.8,39.1H224c7.6,0,13.5,2.6,17.7,7.7c4.2,5.1,6.4,11.9,6.4,20.3v29.2c0,8.4-2.1,15.1-6.4,20.3
		c-4.2,5.1-10.1,7.7-17.7,7.7h-24.8v31.1h-19.4V39.1z M199.2,58.5v46.3h21.7c5.2,0,7.8-3.9,7.8-11.6v-23c0-7.8-2.6-11.6-7.8-11.6
		H199.2z"/>
	<path class="st0" d="M288.6,91.9v1.2c0,7.8,2.6,11.6,7.8,11.6h27.9v19.4h-31.1c-7.6,0-13.5-2.6-17.7-7.7
		c-4.2-5.1-6.4-11.9-6.4-20.3V67.1c0-8.4,2.1-15.1,6.4-20.3c4.2-5.1,10.1-7.7,17.7-7.7h20.2c7.6,0,13.5,2.6,17.7,7.7
		c4.2,5.1,6.4,11.9,6.4,20.3v24.8H288.6z M288.6,72.5h29.5v-2.3c0-7.8-2.6-11.6-7.8-11.6h-14c-5.2,0-7.8,3.9-7.8,11.6V72.5z"/>
	<path class="st0" d="M457.5,77.3v46.9h-19.4V83.5c0-7.2-2.8-10.9-8.5-10.9h-31.1v51.5h-19.4V0h39.6c7.6,0,13.5,2.6,17.7,7.7
		c4.2,5.1,6.4,11.9,6.4,20.3v16.8c0,3.7-0.4,7.1-1.2,10.2C452.2,58.5,457.5,65.9,457.5,77.3z M398.5,19.4v33.8h17.1
		c5.2,0,7.8-3.9,7.8-11.6V31.1c0-7.8-2.6-11.6-7.8-11.6C415.6,19.4,398.5,19.4,398.5,19.4z"/>
	<path class="st0" d="M503.3,124.2c-7.6,0-13.5-2.6-17.7-7.7c-4.2-5.1-6.4-11.9-6.4-20.3V67.1c0-8.4,2.1-15.1,6.4-20.3
		c4.2-5.1,10.1-7.7,17.7-7.7h20.2c7.6,0,13.5,2.6,17.7,7.7c4.2,5.1,6.4,11.9,6.4,20.3v29.2c0,8.4-2.1,15.1-6.4,20.3
		c-4.2,5.1-10.1,7.7-17.7,7.7H503.3z M498.7,93.2c0,7.8,2.6,11.6,7.8,11.6h14c5.2,0,7.8-3.9,7.8-11.6v-23c0-7.8-2.6-11.6-7.8-11.6
		h-14c-5.2,0-7.8,3.9-7.8,11.6V93.2z"/>
	<path class="st0" d="M593.8,124.2c-7.6,0-13.5-2.6-17.7-7.7c-4.2-5.1-6.4-11.9-6.4-20.3V67.1c0-8.4,2.1-15.1,6.4-20.3
		c4.2-5.1,10.1-7.7,17.7-7.7h24.8v19.4H597c-5.2,0-7.8,3.9-7.8,11.6v23c0,7.8,2.6,11.6,7.8,11.6h21.7v19.4
		C618.7,124.2,593.8,124.2,593.8,124.2z"/>
	<path class="st0" d="M657.3,72.5h7c5.7,0,8.5-3.6,8.5-10.9V39.1h19.4v28.7c0,2.5-0.3,4.8-0.8,6.8c9.8,3.8,14.8,11.1,14.8,21.9v27.6
		h-19.4v-21.4c0-7.2-2.8-10.9-8.5-10.9h-21v32.3h-19.4V0h19.4V72.5z"/>
	<path class="st0" d="M746.2,91.9v1.2c0,7.8,2.6,11.6,7.8,11.6h27.9v19.4h-31.1c-7.6,0-13.5-2.6-17.7-7.7
		c-4.2-5.1-6.4-11.9-6.4-20.3V67.1c0-8.4,2.1-15.1,6.4-20.3c4.2-5.1,10.1-7.7,17.7-7.7H771c7.6,0,13.5,2.6,17.7,7.7
		c4.2,5.1,6.4,11.9,6.4,20.3v24.8H746.2z M746.2,72.5h29.5v-2.3c0-7.8-2.6-11.6-7.8-11.6h-14c-5.2,0-7.8,3.9-7.8,11.6L746.2,72.5
		L746.2,72.5z"/>
	<path class="st0" d="M852,124.2c-7.6,0-13.5-2.6-17.7-7.7c-4.2-5.1-6.4-11.9-6.4-20.3V58.5h-13V39.1h13V0h19.4v39.1h13v19.4h-13
		v34.6c0,7.8,2.6,11.6,7.8,11.6H866v19.4C866,124.2,852,124.2,852,124.2z"/>
</g>
</svg>
