<svg enable-background="new 0 0 866 155.3" viewBox="0 0 866 155.3" xmlns="http://www.w3.org/2000/svg"><g fill="#7790e8"><path d="m0 19.4v-19.4h70.3v19.4h-25.4v104.8h-19.4v-104.8z"/><path d="m134 155.3h-31.8v-19.4h28.7c5.2 0 7.8-3.9 7.8-11.6h-24.8c-7.6 0-13.5-2.6-17.7-7.7s-6.4-11.9-6.4-20.3v-57.2h19.4v54c0 7.8 2.6 11.6 7.8 11.6h21.7v-65.6h19.4v88.2c0 8.4-2.1 15.1-6.4 20.3-4.3 5.1-10.2 7.7-17.7 7.7z"/><path d="m179.8 39.1h44.2c7.6 0 13.5 2.6 17.7 7.7s6.4 11.9 6.4 20.3v29.2c0 8.4-2.1 15.1-6.4 20.3-4.2 5.1-10.1 7.7-17.7 7.7h-24.8v31.1h-19.4zm19.4 19.4v46.3h21.7c5.2 0 7.8-3.9 7.8-11.6v-23c0-7.8-2.6-11.6-7.8-11.6h-21.7z"/><path d="m288.6 91.9v1.2c0 7.8 2.6 11.6 7.8 11.6h27.9v19.4h-31.1c-7.6 0-13.5-2.6-17.7-7.7s-6.4-11.9-6.4-20.3v-29c0-8.4 2.1-15.1 6.4-20.3 4.2-5.1 10.1-7.7 17.7-7.7h20.2c7.6 0 13.5 2.6 17.7 7.7s6.4 11.9 6.4 20.3v24.8zm0-19.4h29.5v-2.3c0-7.8-2.6-11.6-7.8-11.6h-14c-5.2 0-7.8 3.9-7.8 11.6v2.3z"/><path d="m457.5 77.3v46.9h-19.4v-40.7c0-7.2-2.8-10.9-8.5-10.9h-31.1v51.5h-19.4v-124.1h39.6c7.6 0 13.5 2.6 17.7 7.7s6.4 11.9 6.4 20.3v16.8c0 3.7-.4 7.1-1.2 10.2 10.6 3.5 15.9 10.9 15.9 22.3zm-59-57.9v33.8h17.1c5.2 0 7.8-3.9 7.8-11.6v-10.5c0-7.8-2.6-11.6-7.8-11.6 0-.1-17.1-.1-17.1-.1z"/><path d="m503.3 124.2c-7.6 0-13.5-2.6-17.7-7.7s-6.4-11.9-6.4-20.3v-29.1c0-8.4 2.1-15.1 6.4-20.3 4.2-5.1 10.1-7.7 17.7-7.7h20.2c7.6 0 13.5 2.6 17.7 7.7s6.4 11.9 6.4 20.3v29.2c0 8.4-2.1 15.1-6.4 20.3-4.2 5.1-10.1 7.7-17.7 7.7h-20.2zm-4.6-31c0 7.8 2.6 11.6 7.8 11.6h14c5.2 0 7.8-3.9 7.8-11.6v-23c0-7.8-2.6-11.6-7.8-11.6h-14c-5.2 0-7.8 3.9-7.8 11.6z"/><path d="m593.8 124.2c-7.6 0-13.5-2.6-17.7-7.7s-6.4-11.9-6.4-20.3v-29.1c0-8.4 2.1-15.1 6.4-20.3 4.2-5.1 10.1-7.7 17.7-7.7h24.8v19.4h-21.6c-5.2 0-7.8 3.9-7.8 11.6v23c0 7.8 2.6 11.6 7.8 11.6h21.7v19.4c0 .1-24.9.1-24.9.1z"/><path d="m657.3 72.5h7c5.7 0 8.5-3.6 8.5-10.9v-22.5h19.4v28.7c0 2.5-.3 4.8-.8 6.8 9.8 3.8 14.8 11.1 14.8 21.9v27.6h-19.4v-21.4c0-7.2-2.8-10.9-8.5-10.9h-21v32.3h-19.4v-124.1h19.4z"/><path d="m746.2 91.9v1.2c0 7.8 2.6 11.6 7.8 11.6h27.9v19.4h-31.1c-7.6 0-13.5-2.6-17.7-7.7s-6.4-11.9-6.4-20.3v-29c0-8.4 2.1-15.1 6.4-20.3 4.2-5.1 10.1-7.7 17.7-7.7h20.2c7.6 0 13.5 2.6 17.7 7.7s6.4 11.9 6.4 20.3v24.8zm0-19.4h29.5v-2.3c0-7.8-2.6-11.6-7.8-11.6h-14c-5.2 0-7.8 3.9-7.8 11.6z"/><path d="m852 124.2c-7.6 0-13.5-2.6-17.7-7.7s-6.4-11.9-6.4-20.3v-37.7h-13v-19.4h13v-39.1h19.4v39.1h13v19.4h-13v34.6c0 7.8 2.6 11.6 7.8 11.6h10.9v19.4c0 .1-14 .1-14 .1z"/></g></svg>